ply
format ascii 1.0
comment VCGLIB generated
element vertex 4
property float x
property float y
property float z
property float nx
property float ny
property float nz
property uchar red
property uchar green
property uchar blue
property uchar alpha
property float texture_u
property float texture_v
element face 2
property list uchar int vertex_indices
end_header
-3.057097e-15 -0.8999999 1.76 1 0 1.736987e-15 254 254 0 255 0 0
3.057097e-15 -0.9 -1.76 1 0 1.736987e-15 254 254 0 255 1 0
3.057097e-15 0.8999999 -1.76 1 0 1.736987e-15 254 254 0 255 1 1
-3.057097e-15 0.9 1.76 1 0 1.736987e-15 254 254 0 255 0 1
3 0 1 2 
3 0 2 3 
